<svg xmlns="http://www.w3.org/2000/svg" width="24" height="24" viewBox="0 0 24 24">
    <defs>
        <linearGradient id="kvxihw1eva" x1="0%" x2="0%" y1="0%" y2="100%">
            <stop offset="0%" stop-color="#FE7423"/>
            <stop offset="100%" stop-color="#FF3E60"/>
        </linearGradient>
        <linearGradient id="22nw53qyfb" x1="45.652%" x2="45.652%" y1="-6.25%" y2="93.75%">
            <stop offset="0%" stop-color="#FFF"/>
            <stop offset="100%" stop-color="#FFF" stop-opacity=".8"/>
        </linearGradient>
    </defs>
    <g fill="none" fill-rule="evenodd">
        <g>
            <g transform="translate(-21 -535) translate(21 535)">
                <path fill="url(#kvxihw1eva)" d="M.516 7.143c.812-3.928 3.31-6.115 7.207-6.776 2.88-.489 5.762-.495 8.637.014 4.012.709 6.424 3.024 7.192 7.011.594 3.082.603 6.196-.009 9.274-.821 3.9-3.384 6.309-7.266 6.967-2.88.489-5.762.495-8.637-.014-4.012-.709-6.435-3.14-7.203-7.127-.624-3.102-.564-6.235.08-9.349z"/>
                <circle cx="17.625" cy="7.875" r="3.375" fill="#FFF" fill-opacity=".6" fill-rule="nonzero"/>
                <path fill="url(#22nw53qyfb)" d="M3 14.596c0 2.294 1.908 4.154 4.263 4.154h10.421c1.831 0 3.316-1.446 3.316-3.23 0-1.636-1.25-2.985-2.868-3.199.016-.162.026-.327.026-.494 0-2.804-2.333-5.077-5.21-5.077-2.405 0-4.424 1.59-5.025 3.747-.215-.033-.435-.055-.66-.055-2.355 0-4.263 1.86-4.263 4.154zm9.563-4.546l.06.004.067.015.057.02.017.008c.556.27 1.067.623 1.516 1.046.075.07.148.142.22.217.172.18.166.464-.014.636-.18.172-.464.167-.636-.013-.061-.063-.123-.125-.187-.185-.202-.19-.42-.365-.65-.521v3.442c0 1.025-.832 1.856-1.857 1.856S9.3 15.744 9.3 14.719c0-1.025.831-1.856 1.856-1.856.35 0 .677.096.957.264V10.5c0-.249.201-.45.45-.45z"/>
            </g>
        </g>
    </g>
</svg>
